<?xml version="1.0" standalone="no"?>
<svg xmlns:xlink="http://www.w3.org/1999/xlink" id="wave" style="transform:rotate(0deg); transition: 0.3s" viewBox="0 0 1440 100" version="1.1" xmlns="http://www.w3.org/2000/svg"><defs><linearGradient id="sw-gradient-0" x1="0" x2="0" y1="1" y2="0"><stop stop-color="rgba(43, 43, 51, 1)" offset="0%"/><stop stop-color="rgba(255, 255, 255, 1)" offset="100%"/></linearGradient></defs><path style="transform:translate(0, 0px); opacity:1" fill="url(#sw-gradient-0)" d="M0,80L21.8,75C43.6,70,87,60,131,51.7C174.5,43,218,37,262,35C305.5,33,349,37,393,36.7C436.4,37,480,33,524,33.3C567.3,33,611,37,655,36.7C698.2,37,742,33,785,26.7C829.1,20,873,10,916,11.7C960,13,1004,27,1047,40C1090.9,53,1135,67,1178,68.3C1221.8,70,1265,60,1309,61.7C1352.7,63,1396,77,1440,71.7C1483.6,67,1527,43,1571,41.7C1614.5,40,1658,60,1702,58.3C1745.5,57,1789,33,1833,25C1876.4,17,1920,23,1964,31.7C2007.3,40,2051,50,2095,51.7C2138.2,53,2182,47,2225,43.3C2269.1,40,2313,40,2356,40C2400,40,2444,40,2487,46.7C2530.9,53,2575,67,2618,60C2661.8,53,2705,27,2749,16.7C2792.7,7,2836,13,2880,18.3C2923.6,23,2967,27,3011,23.3C3054.5,20,3098,10,3120,5L3141.8,0L3141.8,100L3120,100C3098.2,100,3055,100,3011,100C2967.3,100,2924,100,2880,100C2836.4,100,2793,100,2749,100C2705.5,100,2662,100,2618,100C2574.5,100,2531,100,2487,100C2443.6,100,2400,100,2356,100C2312.7,100,2269,100,2225,100C2181.8,100,2138,100,2095,100C2050.9,100,2007,100,1964,100C1920,100,1876,100,1833,100C1789.1,100,1745,100,1702,100C1658.2,100,1615,100,1571,100C1527.3,100,1484,100,1440,100C1396.4,100,1353,100,1309,100C1265.5,100,1222,100,1178,100C1134.5,100,1091,100,1047,100C1003.6,100,960,100,916,100C872.7,100,829,100,785,100C741.8,100,698,100,655,100C610.9,100,567,100,524,100C480,100,436,100,393,100C349.1,100,305,100,262,100C218.2,100,175,100,131,100C87.3,100,44,100,22,100L0,100Z"/></svg>



<svg id="wave" style="transform:rotate(0deg); transition: 0.3s" viewBox="0 0 1440 100" version="1.1" xmlns="http://www.w3.org/2000/svg"><defs><linearGradient id="sw-gradient-0" x1="0" x2="0" y1="1" y2="0"><stop stop-color="rgba(43, 43, 51, 1)" offset="0%"></stop><stop stop-color="rgba(255, 255, 255, 1)" offset="100%"></stop></linearGradient></defs><path style="transform:translate(0, 0px); opacity:1" fill="url(#sw-gradient-0)" d="M0,60L21.8,53.3C43.6,47,87,33,131,30C174.5,27,218,33,262,43.3C305.5,53,349,67,393,60C436.4,53,480,27,524,13.3C567.3,0,611,0,655,1.7C698.2,3,742,7,785,13.3C829.1,20,873,30,916,41.7C960,53,1004,67,1047,63.3C1090.9,60,1135,40,1178,38.3C1221.8,37,1265,53,1309,50C1352.7,47,1396,23,1440,21.7C1483.6,20,1527,40,1571,48.3C1614.5,57,1658,53,1702,56.7C1745.5,60,1789,70,1833,71.7C1876.4,73,1920,67,1964,66.7C2007.3,67,2051,73,2095,76.7C2138.2,80,2182,80,2225,81.7C2269.1,83,2313,87,2356,81.7C2400,77,2444,63,2487,61.7C2530.9,60,2575,70,2618,66.7C2661.8,63,2705,47,2749,46.7C2792.7,47,2836,63,2880,63.3C2923.6,63,2967,47,3011,45C3054.5,43,3098,57,3120,63.3L3141.8,70L3141.8,100L3120,100C3098.2,100,3055,100,3011,100C2967.3,100,2924,100,2880,100C2836.4,100,2793,100,2749,100C2705.5,100,2662,100,2618,100C2574.5,100,2531,100,2487,100C2443.6,100,2400,100,2356,100C2312.7,100,2269,100,2225,100C2181.8,100,2138,100,2095,100C2050.9,100,2007,100,1964,100C1920,100,1876,100,1833,100C1789.1,100,1745,100,1702,100C1658.2,100,1615,100,1571,100C1527.3,100,1484,100,1440,100C1396.4,100,1353,100,1309,100C1265.5,100,1222,100,1178,100C1134.5,100,1091,100,1047,100C1003.6,100,960,100,916,100C872.7,100,829,100,785,100C741.8,100,698,100,655,100C610.9,100,567,100,524,100C480,100,436,100,393,100C349.1,100,305,100,262,100C218.2,100,175,100,131,100C87.3,100,44,100,22,100L0,100Z"></path></svg>